<svg id="Layer_5" enable-background="new 0 0 64 64" height="512" viewBox="0 0 64 64" width="512" xmlns="http://www.w3.org/2000/svg"><path d="m38.64 24s0 .01-.01 0c-1.4.94-3.01 1.58-4.74 1.85-.09.73-.22 1.45-.4 2.15l-1.5 3.74c-1.01 1.84-2.37 3.45-3.99 4.75v25.51h34v-38z" fill="#e6e9ed"/><circle cx="54" cy="54" fill="#fcd770" r="4"/><path d="m42 50v8h-10v-8h5z" fill="#b4dd7f"/><path d="m58 28v8h-13-13v-4.25l-.01-.01c.65-1.16 1.16-2.42 1.5-3.74h.01z" fill="#ff826e"/><path d="m33.89 25.85c-.61.1-1.25.15-1.89.15l-2.24.37-9.64 1.61c-.08.01-.16.02-.24.02h-.47c-.78 0-1.41-.63-1.41-1.41 0-.38.15-.74.41-1l4.17-4.17c-1.61-2.04-2.58-4.62-2.58-7.43 0-.61.05-1.2.14-1.79.21-1.35.65-2.64 1.29-3.81 1.96-3.65 5.77-6.22 10.12-6.38 6.83-.25 12.45 5.21 12.45 11.99 0 4.17-2.13 7.85-5.36 10 0 0 0 .01-.01 0-1.4.94-3.01 1.58-4.74 1.85z" fill="#e6e9ed"/><path d="m16 44h4c.365 0 .704.106 1 .279v-4.56c-.97.181-1.98.281-3 .281s-2.03-.1-3-.28v4.56c.296-.174.635-.28 1-.28z" fill="#ccd1d9"/><path d="m22 46v12c0 1.1-.45 2.1-1.17 2.83-.73.72-1.73 1.17-2.83 1.17-2.21 0-4-1.79-4-4v-12c0-1.1.9-2 2-2h4c1.1 0 2 .9 2 2z" fill="#969faa"/><path d="m21 39.72c-.97.18-1.98.28-3 .28s-2.03-.1-3-.28c-7.4-1.4-13-7.9-13-15.72 0-8.84 7.16-16 16-16 1.17 0 2.31.13 3.4.37l.03.02c-.64 1.17-1.08 2.46-1.29 3.81-.7-.12-1.41-.2-2.14-.2-6.63 0-12 5.37-12 12s5.37 12 12 12c5.81 0 10.66-4.14 11.76-9.63l2.24-.37c.64 0 1.28-.05 1.89-.15-.09.73-.22 1.45-.4 2.15-.34 1.32-.85 2.58-1.5 3.74-1.01 1.84-2.37 3.45-3.99 4.75-2 1.6-4.39 2.73-7 3.23z" fill="#fcd770"/><circle cx="32" cy="8" fill="#ff826e" r="2"/><path d="m20.12 27.98 9.64-1.61c-1.1 5.49-5.95 9.63-11.76 9.63-6.63 0-12-5.37-12-12s5.37-12 12-12c.73 0 1.44.08 2.14.2-.09.59-.14 1.18-.14 1.79 0 2.81.97 5.39 2.58 7.43l-4.17 4.17c-.26.26-.41.62-.41 1 0 .78.63 1.41 1.41 1.41h.47c.08 0 .16-.01.24-.02z" fill="#69d6f4"/><path d="m32 11c1.654 0 3-1.346 3-3s-1.346-3-3-3-3 1.346-3 3 1.346 3 3 3zm0-4c.551 0 1 .448 1 1s-.449 1-1 1-1-.448-1-1 .449-1 1-1z"/><path d="m35 21h-2v-6h2v-2h-6v2h2v6h-2v2h6z"/><path d="m41.361 23c2.249-2.338 3.639-5.507 3.639-9 0-3.562-1.413-6.887-3.978-9.359-2.564-2.472-5.937-3.759-9.508-3.632-4.46.163-8.373 2.663-10.589 6.272-.977-.171-1.958-.281-2.925-.281-9.374 0-17 7.626-17 17 0 7.994 5.553 14.699 13 16.505v3.275c-.609.549-1 1.337-1 2.22v12c0 2.757 2.243 5 5 5s5-2.243 5-5v-12c0-.883-.391-1.67-1-2.22v-3.272c1.79-.432 3.476-1.137 5-2.089v24.581h36v-40zm-9.773-19.993c3.012-.103 5.877.982 8.046 3.073 2.171 2.093 3.366 4.905 3.366 7.92 0 6.065-4.935 11-11 11l-12.117 2h-.469c-.228 0-.414-.186-.414-.414 0-.109.044-.216.121-.293l4.795-4.794-.55-.698c-1.549-1.964-2.367-4.318-2.366-6.807.003-5.845 4.753-10.773 10.588-10.987zm1.412 31.993v-3.004c.504-.947.923-1.948 1.243-2.996h22.757v6zm-11.734-13.68-3.559 3.558c-.449.449-.707 1.071-.707 1.708 0 1.331 1.083 2.414 2.414 2.414h.469c.133 0 .265-.012.397-.033l8.099-1.349c-1.517 4.351-5.663 7.382-10.379 7.382-6.065 0-11-4.935-11-11s4.935-11 11-11c.344 0 .692.022 1.048.058-.023.31-.048.619-.048.934-.001 2.646.779 5.161 2.266 7.328zm-18.266 2.68c0-8.271 6.729-15 15-15 .649 0 1.306.06 1.964.148-.256.623-.455 1.272-.612 1.935-.457-.05-.908-.083-1.352-.083-7.168 0-13 5.832-13 13s5.832 13 13 13c5.935 0 11.108-4.062 12.575-9.749l1.509-.251c.205-.001.405-.024.607-.035-1.386 6.942-7.491 12.035-14.691 12.035-8.271 0-15-6.729-15-15zm18 34c0 1.654-1.346 3-3 3s-3-1.346-3-3v-12c0-.552.449-1 1-1h4c.551 0 1 .448 1 1zm-1-15h-4v-2.128c.657.077 1.322.128 2 .128.677 0 1.342-.053 2-.131zm41 18h-32v-24.053c.722-.614 1.389-1.288 2-2.014v2.067h13v6h-8v6h-5v10h12v-10h-5v-4h15v4.101c-2.279.465-4 2.484-4 4.899 0 2.757 2.243 5 5 5s5-2.243 5-5c0-2.414-1.721-4.434-4-4.899v-6.101h-9v-6h13v-10h-24.29c.018-.099.032-.198.048-.298 1.492-.324 2.883-.913 4.137-1.702h22.105zm-20-10v6h-8v-6zm13 0c1.654 0 3 1.346 3 3s-1.346 3-3 3-3-1.346-3-3 1.346-3 3-3z"/><path d="m13 23h2v2h-2z"/><path d="m9 23h2v2h-2z"/><path d="m41 14h-2c0 2.136-.957 4.128-2.625 5.465l1.251 1.561c2.144-1.719 3.374-4.28 3.374-7.026z"/></svg>