<svg id="Layer_1" enable-background="new 0 0 512 512" height="512" viewBox="0 0 512 512" width="512" xmlns="http://www.w3.org/2000/svg"><g><g><g><g><g><g><g id="XMLID_1755_"><g id="XMLID_1756_"><g id="XMLID_1757_"><g id="XMLID_1758_"><g id="XMLID_1759_"><g id="XMLID_1760_"><g id="XMLID_1761_"><g id="XMLID_1762_"><g id="XMLID_1763_"><g id="XMLID_1764_"><g id="XMLID_1765_"><g id="XMLID_1766_"><g id="XMLID_1767_"><g id="XMLID_1768_"><g id="XMLID_1769_"><circle cx="256" cy="256" fill="#f9710d" r="256"/></g></g></g></g></g></g></g></g></g></g></g></g></g></g></g></g></g><path d="m512 256c0-15.863-1.454-31.385-4.216-46.45l-103.199-103.2-326.736 89.336 17.857 17.712c-8.844 3.273-17.228 89.685-17.228 89.685l13.154 13.03-12.488 94.366 84.925 84.502c28.534 10.983 59.526 17.019 91.931 17.019 141.385 0 256-114.615 256-256z" fill="#e54c00"/><g><g><path d="m385.191 202.605h-290.863c-12.749 0-23.18-10.431-23.18-23.18v-60.429c0-12.749 10.431-23.18 23.18-23.18h290.863c12.749 0 23.18 10.431 23.18 23.18v60.429c0 12.749-10.431 23.18-23.18 23.18z" fill="#726e6b"/><path d="m408.369 119v60.43c0 12.74-10.43 23.18-23.18 23.18h-145.43v-106.79h145.43c12.75 0 23.18 10.43 23.18 23.18z" fill="#605e5c"/></g><g><path d="m385.191 309.395h-290.863c-12.749 0-23.18-10.431-23.18-23.18v-60.429c0-12.749 10.431-23.18 23.18-23.18h290.863c12.749 0 23.18 10.431 23.18 23.18v60.429c0 12.749-10.431 23.18-23.18 23.18z" fill="#595552"/><path d="m408.369 225.79v60.42c0 12.75-10.43 23.18-23.18 23.18h-145.43v-106.78h145.43c12.75 0 23.18 10.43 23.18 23.18z" fill="#474441"/></g><g><path d="m385.191 416.184h-290.863c-12.749 0-23.18-10.431-23.18-23.18v-60.429c0-12.749 10.431-23.18 23.18-23.18h290.863c12.749 0 23.18 10.431 23.18 23.18v60.429c0 12.749-10.431 23.18-23.18 23.18z" fill="#726e6b"/><path d="m408.369 332.57v60.43c0 12.75-10.43 23.18-23.18 23.18h-145.43v-106.79h145.43c12.75 0 23.18 10.44 23.18 23.18z" fill="#605e5c"/></g></g><g><path d="m239.759 343.994h130.955v37.59h-130.955z" fill="#d8d5d2"/></g><ellipse cx="188.261" cy="362.789" fill="#46f7d5" rx="17.325" ry="17.325" transform="matrix(.161 -.987 .987 .161 -200.112 490.166)"/><ellipse cx="121.46" cy="362.789" fill="#ffc136" rx="17.325" ry="17.325" transform="matrix(.212 -.977 .977 .212 -258.836 404.544)"/><g><g><path d="m239.759 237.205h130.955v37.59h-130.955z" fill="#d8d5d2"/></g></g><circle cx="188.261" cy="256" fill="#46f7d5" r="17.325"/><circle cx="121.46" cy="256" fill="#ffc136" r="17.325"/><g><g><path d="m239.759 130.416h130.955v37.59h-130.955z" fill="#d8d5d2"/></g></g><ellipse cx="188.261" cy="149.211" fill="#46f7d5" rx="17.325" ry="17.325" transform="matrix(.922 -.387 .387 .922 -43.058 84.423)"/><ellipse cx="121.46" cy="149.211" fill="#ffc136" rx="17.325" ry="17.325" transform="matrix(.772 -.636 .636 .772 -67.153 111.242)"/></g><circle cx="370.714" cy="345.465" fill="#7343dd" r="86.334"/><path d="m457.05 345.46c0 47.69-38.66 86.34-86.34 86.34v-172.67c47.68 0 86.34 38.65 86.34 86.33z" fill="#552cb7"/></g></g><path d="m394.652 292.886-61.93 45.097 28.632 27.724-14.131 32.816 58.199-42.139-26.486-28.574z" fill="#ffc136"/><path d="m405.42 356.38-34.71 25.13v-71.19l23.94-17.43-15.71 34.92z" fill="#f4a300"/></g></svg>