<svg id="Capa_1" enable-background="new 0 0 512 512" height="512" viewBox="0 0 512 512" width="512" xmlns="http://www.w3.org/2000/svg"><g><path d="m336.333 406h-80.333l-30-15 30-15h80.333z" fill="#80eeff"/><path d="m175.667 376h80.333v30h-80.333z" fill="#c2f7ff"/><path d="m110.334 285.5h-30v-180.5h95.333v30h-65.333z" fill="#c2f7ff"/><path d="m431.666 285.5h-30v-150.5h-65.333v-30h95.333z" fill="#80eeff"/><path d="m351.333 80.5v-80h-95.333l-62.857 138.5z" fill="#a1a1a1"/><path d="m256 .5h-95.333v80l95.333 58.5z" fill="#bdbdbd"/><path d="m351.333 160.5v-80h-95.333l-62.857 138.5z" fill="#828282"/><path d="m256 80.5h-95.333v80l95.333 58.5z" fill="#a1a1a1"/><path d="m256 160.5-47.143 36.215 47.143 43.785h95.333v-80z" fill="#636363"/><path d="m160.667 160.5h95.333v80h-95.333z" fill="#828282"/><path d="m190.666 271.5h-190.666v80l95.333 45 95.333-45z" fill="#bdbdbd"/><path d="m0 351.5v80l95.333 30 95.333-30v-80z" fill="#a1a1a1"/><path d="m0 431.5h190.666v80h-190.666z" fill="#828282"/><path d="m512 271.5h-190.666v80l95.333 45 95.333-45z" fill="#a1a1a1"/><path d="m321.334 351.5v80l95.333 30 95.333-30v-80z" fill="#828282"/><path d="m321.334 431.5h190.666v80h-190.666z" fill="#636363"/></g></svg>